<?xml version="1.0" encoding="UTF-8"?>
<svg width="61px" height="19px" viewBox="0 0 61 19" version="1.1" xmlns="http://www.w3.org/2000/svg" xmlns:xlink="http://www.w3.org/1999/xlink">
    <!-- Generator: Sketch 47.1 (45422) - http://www.bohemiancoding.com/sketch -->
    <title>Pukka logo</title>
    <desc>Created with Sketch.</desc>
    <defs>
        <linearGradient x1="91.1469057%" y1="70.3803698%" x2="14.3482587%" y2="70.3803718%" id="linearGradient-1">
            <stop stop-color="#F657B9" offset="0%"></stop>
            <stop stop-color="#BF68F0" offset="32.2285555%"></stop>
            <stop stop-color="#24A4EA" offset="100%"></stop>
        </linearGradient>
        <path d="M60.9732396,13.7617837 C60.9732396,14.6292822 60.2909555,15.3315428 59.4481341,15.3315428 C58.6053127,15.3315428 57.9230287,14.6292822 57.9230287,13.7617837 C57.2006104,14.6441995 56.1972515,15.4084243 54.5718102,15.4084243 C52.0232788,15.4084243 49.6754192,13.3842613 49.6754192,9.68706565 L49.6754192,9.6457562 C49.6754192,5.94856057 52.0634132,3.9243976 54.5718102,3.9243976 C56.1571172,3.9243976 57.1805432,4.68862239 57.9230287,5.7213586 L57.9230287,5.57677553 C57.9230287,4.70927712 58.6053127,4.0070165 59.4481341,4.0070165 C60.2909555,4.0070165 60.9732396,4.70927712 60.9732396,5.57677553 L60.9732396,13.7617837 Z M58.0051265,9.68706565 L58.0051265,9.6457562 C58.0051265,7.80748575 56.7022025,6.58885702 55.1342771,6.58885702 C53.5663516,6.58885702 52.2413442,7.80748575 52.2413442,9.6457562 L52.2413442,9.68706565 C52.2413442,11.5459908 53.5663516,12.7439648 55.1342771,12.7439648 C56.7022025,12.7439648 58.0051265,11.5253361 58.0051265,9.68706565 Z M0,17.4192928 L1.26734231e-15,5.57677553 C1.26734231e-15,4.70927712 0.699541287,4.0070165 1.56368052,4.0070165 C2.42781976,4.0070165 3.12736105,4.70927712 3.12736105,5.57677553 L3.12736105,5.7213586 C3.88862656,4.68862239 4.93793849,3.9243976 6.56334325,3.9243976 C9.13518621,3.9243976 11.5835807,5.94856057 11.5835807,9.68706565 C11.5835807,13.3842613 9.1763357,15.4084243 6.56334325,15.4084243 C4.89678901,15.4084243 3.86805182,14.6441995 3.12736105,13.7560463 L3.12736105,17.4192928 C3.12736105,18.2867912 2.42781976,18.9890518 1.56368052,18.9890518 C0.699541287,18.9890518 0,18.2867912 0,17.4192928 Z M23.9476659,5.57677553 L23.9476659,13.7560463 C23.9476659,14.6235447 23.2481246,15.3258054 22.3839854,15.3258054 C21.5198461,15.3258054 20.8203049,14.6235447 20.8203049,13.7560463 L20.8203049,13.632118 C20.1001888,14.5615806 19.1743254,15.4084243 17.5900701,15.4084243 C15.2239746,15.4084243 13.8454667,13.8386652 13.8454667,11.2981341 L13.8454667,5.57677553 C13.8454667,4.70927712 14.545008,4.0070165 15.4091473,4.0070165 C16.2732865,4.0070165 16.9728278,4.70927712 16.9728278,5.57677553 L16.9728278,10.3067074 C16.9728278,11.7938475 17.6723691,12.5580723 18.8657042,12.5580723 C20.0590393,12.5580723 20.8203049,11.7938475 20.8203049,10.3067074 L20.8203049,5.57677553 C20.8203049,4.70927712 21.5198461,4.0070165 22.3839854,4.0070165 C23.2481246,4.0070165 23.9476659,4.70927712 23.9476659,5.57677553 Z M26.4038824,13.7560463 L26.4038824,1.56975904 C26.4038824,0.702260623 27.1034237,0 27.9675629,0 C28.8317022,0 29.5312435,0.702260623 29.5312435,1.56975904 L29.5312435,8.42712747 L33.4404448,4.70927712 C33.8930891,4.27552791 34.2634345,4.0070165 34.8189526,4.0070165 C35.6625171,4.0070165 36.1974604,4.68862239 36.1974604,5.41153774 C36.1974604,5.94856057 35.909414,6.36165505 35.4773444,6.77474954 L33.0083751,8.90218613 L35.9505635,12.8885479 C36.2180352,13.2603329 36.3414836,13.5494991 36.3414836,13.9006294 C36.3414836,14.7474731 35.6625171,15.3258054 34.8806768,15.3258054 C34.2634345,15.3258054 33.8930891,15.1192581 33.5227437,14.60289 L30.7863028,10.8230755 L29.5312435,11.9590853 L29.5312435,13.7560463 C29.5312435,14.6235447 28.8317022,15.3258054 27.9675629,15.3258054 C27.1034237,15.3258054 26.4038824,14.6235447 26.4038824,13.7560463 Z M38.5252708,13.7560463 L38.5252708,1.56975904 C38.5252708,0.702260623 39.2248121,0 40.0889513,0 C40.9530906,0 41.6526319,0.702260623 41.6526319,1.56975904 L41.6526319,8.42712747 L45.5618332,4.70927712 C46.0144775,4.27552791 46.3848229,4.0070165 46.940341,4.0070165 C47.7839055,4.0070165 48.3188488,4.68862239 48.3188488,5.41153774 C48.3188488,5.94856057 48.0308024,6.36165505 47.5987328,6.77474954 L45.1297635,8.90218613 L48.0719519,12.8885479 C48.3394236,13.2603329 48.462872,13.5494991 48.462872,13.9006294 C48.462872,14.7474731 47.7839055,15.3258054 47.0020652,15.3258054 C46.3848229,15.3258054 46.0144775,15.1192581 45.6441321,14.60289 L42.9076912,10.8230755 L41.6526319,11.9590853 L41.6526319,13.7560463 C41.6526319,14.6235447 40.9530906,15.3258054 40.0889513,15.3258054 C39.2248121,15.3258054 38.5252708,14.6235447 38.5252708,13.7560463 Z M6.03249909,12.7439648 C7.64162536,12.7439648 9.00145038,11.5459908 9.00145038,9.68706565 L9.00145038,9.6457562 C9.00145038,7.80748575 7.64162536,6.58885702 6.03249909,6.58885702 C4.42337282,6.58885702 3.08621156,7.80748575 3.08621156,9.6457562 L3.08621156,9.68706565 C3.08621156,11.5253361 4.42337282,12.7439648 6.03249909,12.7439648 Z" id="path-2"></path>
        <linearGradient x1="50%" y1="0%" x2="50%" y2="100%" id="linearGradient-4">
            <stop stop-color="#24A4EA" offset="0%"></stop>
            <stop stop-color="#2F8CE3" offset="100%"></stop>
        </linearGradient>
        <linearGradient x1="50%" y1="0%" x2="50%" y2="100%" id="linearGradient-5">
            <stop stop-color="#6291E9" offset="0%"></stop>
            <stop stop-color="#6380F1" offset="100%"></stop>
        </linearGradient>
        <linearGradient x1="50%" y1="0%" x2="50%" y2="100%" id="linearGradient-6">
            <stop stop-color="#F658BA" offset="0%"></stop>
            <stop stop-color="#F14789" offset="100%"></stop>
        </linearGradient>
        <linearGradient x1="12.0128764%" y1="41.8123924%" x2="90.3780412%" y2="50%" id="linearGradient-7">
            <stop stop-color="#7D88E8" offset="0%"></stop>
            <stop stop-color="#A76DF8" offset="100%"></stop>
        </linearGradient>
        <linearGradient x1="12.0128764%" y1="41.8123924%" x2="90.3780412%" y2="50%" id="linearGradient-8">
            <stop stop-color="#BE76E8" offset="0%"></stop>
            <stop stop-color="#D451D4" offset="100%"></stop>
        </linearGradient>
    </defs>
    <g id="Page-1" stroke="none" stroke-width="1" fill="none" fill-rule="evenodd">
        <g id="Notification-✅-" transform="translate(-16.000000, -24.000000)">
            <g id="Navbarr" transform="translate(-5.000000, 24.000000)">
                <g id="Pukka-logo" transform="translate(21.000000, 0.000000)">
                    <g id="Group-Copy-7">
                        <g id="Group-Copy-9">
                            <mask id="mask-3" fill="white">
                                <use xlink:href="#path-2"></use>
                            </mask>
                            <use id="Combined-Shape" fill="url(#linearGradient-1)" xlink:href="#path-2"></use>
                            <rect id="Rectangle-266" fill="url(#linearGradient-4)" mask="url(#mask-3)" x="0" y="9.48401243" width="3.12820513" height="9.49661801"></rect>
                            <rect id="Rectangle-266-Copy" fill="url(#linearGradient-5)" mask="url(#mask-3)" x="20.7802198" y="5.2758989" width="3.12820513" height="10.1041458"></rect>
                            <rect id="Rectangle-266-Copy-2" fill-opacity="0.900000036" fill="url(#linearGradient-6)" mask="url(#mask-3)" x="57.8398744" y="5.2758989" width="3.12820513" height="10.1041458"></rect>
                            <rect id="Rectangle-269" fill="url(#linearGradient-7)" mask="url(#mask-3)" transform="translate(32.067029, 7.741249) rotate(-41.000000) translate(-32.067029, -7.741249) " x="26.7946107" y="6.25558267" width="10.544836" height="2.97133359"></rect>
                            <rect id="Rectangle-269-Copy" fill="url(#linearGradient-8)" mask="url(#mask-3)" transform="translate(44.086647, 7.847655) rotate(-41.000000) translate(-44.086647, -7.847655) " x="38.8142291" y="6.36198816" width="10.544836" height="2.97133359"></rect>
                        </g>
                    </g>
                </g>
            </g>
        </g>
    </g>
</svg>
